<?xml version="1.0" encoding="UTF-8" standalone="no"?>
<!-- Created with Inkscape (http://www.inkscape.org/) -->

<svg
   xmlns:dc="http://purl.org/dc/elements/1.1/"
   xmlns:cc="http://creativecommons.org/ns#"
   xmlns:rdf="http://www.w3.org/1999/02/22-rdf-syntax-ns#"
   xmlns:svg="http://www.w3.org/2000/svg"
   xmlns="http://www.w3.org/2000/svg"
   xmlns:sodipodi="http://sodipodi.sourceforge.net/DTD/sodipodi-0.dtd"
   xmlns:inkscape="http://www.inkscape.org/namespaces/inkscape"
   width="1153.267mm"
   height="285.84061mm"
   viewBox="0 0 1153.267 285.84061"
   version="1.1"
   id="svg8"
   inkscape:version="0.92.5 (2060ec1f9f, 2020-04-08)"
   sodipodi:docname="logo.svg">
  <defs
     id="defs2" />
  <sodipodi:namedview
     id="base"
     pagecolor="#ffffff"
     bordercolor="#666666"
     borderopacity="1.0"
     inkscape:pageopacity="0.0"
     inkscape:pageshadow="2"
     inkscape:zoom="0.175"
     inkscape:cx="863.70335"
     inkscape:cy="500.56724"
     inkscape:document-units="mm"
     inkscape:current-layer="layer1"
     showgrid="false"
     fit-margin-top="0"
     fit-margin-left="0"
     fit-margin-right="0"
     fit-margin-bottom="0"
     inkscape:window-width="1920"
     inkscape:window-height="1019"
     inkscape:window-x="0"
     inkscape:window-y="30"
     inkscape:window-maximized="1"
     inkscape:object-paths="true" />
  <metadata
     id="metadata5">
    <rdf:RDF>
      <cc:Work
         rdf:about="">
        <dc:format>image/svg+xml</dc:format>
        <dc:type
           rdf:resource="http://purl.org/dc/dcmitype/StillImage" />
        <dc:title></dc:title>
      </cc:Work>
    </rdf:RDF>
  </metadata>
  <g
     inkscape:label="Capa 1"
     inkscape:groupmode="layer"
     id="layer1"
     transform="translate(-13.715071,87.451874)">
    <path
       style="fill:#00c83e;fill-opacity:1;stroke-width:4.37499993;stroke:#000000;stroke-opacity:0.48858449;stroke-miterlimit:4;stroke-dasharray:0.43749999,0.43749999;stroke-linejoin:miter;stroke-dashoffset:0;stroke-linecap:round"
       d="M 196.4472,197.54856 C 191.09548,195.4547 183.94733,181.43695 172.00021,149.60724 158.62459,113.97172 153.43976,103.771 148.70245,103.771 c -6.66807,0 -9.98907,9.1467 -20.55617,56.6157 -3.56508,16.01488 -4.82321,18.86442 -10.54857,23.89135 -15.10632,13.26353 -32.093856,17.12051 -39.690005,9.01151 -7.452706,-7.95586 -8.663918,-14.13161 -8.364714,-42.6502 C 70.225136,85.621017 58.687621,34.450276 26.027994,-42.356674 19.255886,-58.282902 13.715071,-73.631319 13.715071,-76.464263 c 0,-6.328765 6.054927,-10.987611 14.280171,-10.987611 9.779511,0 29.294922,6.989778 36.760698,13.166472 8.496638,7.029553 9.076663,9.039152 16.491001,57.13606 6.609873,42.878308 11.490488,65.227237 16.929851,77.523828 4.199008,9.492557 6.334578,11.454847 12.512558,11.497327 7.67521,0.05275 10.71747,-7.96795 11.87191,-31.299527 0.61305,-12.389713 1.96674,-22.11783 3.25736,-23.408438 1.25199,-1.251987 7.60865,-2.208375 14.67809,-2.208375 16.53149,0 18.23603,2.141762 20.96529,26.343022 1.82012,16.139663 2.67874,18.9377 6.94571,22.634409 5.70385,4.941557 10.26645,5.292956 17.84426,1.374321 12.58658,-6.508762 15.16337,-19.818998 16.58581,-85.672156 0.96579,-44.711938 1.64841,-54.318732 4.02885,-56.697682 5.53994,-5.536573 23.55595,-7.082886 70.24859,-6.029452 62.02943,1.399451 70.65766,3.708205 75.45864,20.191327 3.42567,11.761298 1.25679,23.691662 -5.54321,30.491666 -5.12022,5.120216 -6.12975,5.389529 -16.24174,4.332617 -5.93017,-0.619832 -18.32366,-2.935173 -27.54108,-5.145215 -9.21743,-2.210042 -22.1026,-4.137831 -28.63372,-4.283996 -10.52023,-0.235443 -12.30176,0.260442 -15.61816,4.347328 -3.3467,4.124209 -3.67767,6.871683 -3.1231,25.9259948 l 0.62029,21.3129222 7.14848,6.546741 7.14847,6.54674 18.16043,-0.60226 18.16045,-0.60226 0.61164,8.436301 c 0.80983,11.169471 -2.6035,22.496368 -6.77978,22.49827 -1.76304,8.01e-4 -10.14391,-1.375816 -18.62414,-3.059134 C 268.30214,51.0627 266.49258,51.051388 262.4188,53.7207 c -2.71572,1.779406 -5.29445,6.123795 -6.54524,11.026744 -1.13515,4.449781 -7.15464,18.046495 -13.37664,30.214925 -18.10511,35.408431 -15.60482,38.772341 16.75568,22.543081 19.66152,-9.86054 22.71934,-10.84254 33.88031,-10.88053 8.62141,-0.0294 13.76904,0.94161 17.31719,3.26644 7.48226,4.90258 12.8459,16.88074 13.21628,29.51487 0.3743,12.76694 -1.62994,15.68791 -18.1499,26.45152 -25.34737,16.51516 -95.64866,36.94169 -109.06928,31.69086 z"
       id="path1410"
       inkscape:connector-curvature="0" />
  </g>
  <g
     inkscape:groupmode="layer"
     id="layer2"
     inkscape:label="Capa 2"
     transform="translate(-6.3823346,189.92642)">
    <text
       xml:space="preserve"
       style="font-style:normal;font-weight:normal;font-size:52.49255371px;line-height:1.25;font-family:sans-serif;letter-spacing:0px;word-spacing:0px;fill:#000000;fill-opacity:1;stroke:none;stroke-width:1.3123138"
       x="318.06647"
       y="77.79882"
       id="text1408"><tspan
         sodipodi:role="line"
         id="tspan1406"
         x="318.06647"
         y="77.79882"
         style="font-style:normal;font-variant:normal;font-weight:900;font-stretch:normal;font-size:125.98213196px;font-family:'Daniel Black';-inkscape-font-specification:'Daniel Black, Heavy';font-variant-ligatures:normal;font-variant-caps:normal;font-variant-numeric:normal;font-feature-settings:normal;text-align:start;writing-mode:lr-tb;text-anchor:start;stroke-width:1.3123138">SCommerce</tspan></text>
  </g>
</svg>
